<svg width="954" height="287" viewBox="0 0 954 287" fill="none" xmlns="http://www.w3.org/2000/svg">
<path d="M938.164 141.187C929.422 141.187 922.604 134.163 922.604 125.626C922.604 117.089 929.497 109.991 938.239 109.991C946.981 109.991 953.8 117.015 953.8 125.533C953.8 134.088 946.907 141.187 938.164 141.187ZM938.239 111.541C930.262 111.541 924.247 117.874 924.247 125.626C924.247 133.379 930.244 139.636 938.164 139.636C946.122 139.636 952.175 133.304 952.175 125.552C952.156 117.799 946.178 111.541 938.239 111.541ZM941.695 127.139L946.104 133.304H942.386L938.426 127.644H935.026V133.304H931.925V116.977H939.21C943.003 116.977 945.506 118.92 945.506 122.189C945.468 124.86 943.937 126.504 941.695 127.139ZM939.061 119.779H935.007V124.954H939.061C941.078 124.954 942.293 123.964 942.293 122.376C942.293 120.676 941.078 119.779 939.061 119.779Z" fill="#1ED760"/>
<path d="M804.568 110.291V107.227C804.568 98.2419 808.005 94.2256 815.739 94.2256C820.353 94.2256 824.051 95.1409 828.198 96.5233C828.703 96.6914 829.245 96.598 829.655 96.2991C830.085 96.0002 830.328 95.4959 830.328 94.9915V76.3672C830.328 75.6573 829.861 75.0222 829.188 74.8167C824.817 73.5091 819.213 72.1828 810.807 72.1828C790.389 72.1828 779.592 83.6899 779.592 105.415V110.085H768.963C768.066 110.085 767.338 110.814 767.338 111.71V130.802C767.338 131.698 768.066 132.427 768.963 132.427H779.592V208.25C779.592 209.147 780.321 209.875 781.199 209.875H803.298C804.194 209.875 804.923 209.147 804.923 208.25V132.427H825.564L857.19 208.232C853.604 216.189 850.073 217.777 845.254 217.777C841.349 217.777 837.258 216.619 833.055 214.321C832.663 214.097 832.196 214.06 831.766 214.209C831.337 214.359 830.982 214.676 830.814 215.087L823.323 231.526C822.968 232.311 823.267 233.207 824.014 233.618C831.841 237.859 838.902 239.671 847.626 239.671C863.953 239.671 872.975 232.068 880.933 211.613L919.284 112.514C919.47 112.009 919.414 111.449 919.116 111.001C918.817 110.571 918.312 110.291 917.789 110.291H894.775C894.084 110.291 893.467 110.72 893.243 111.374L869.669 178.717L843.852 111.337C843.61 110.702 843.012 110.291 842.339 110.291H804.568Z" fill="#1ED760"/>
<path d="M744.483 66.2591C735.722 66.2591 728.623 73.3576 728.623 82.1C728.623 90.8611 735.722 97.9596 744.483 97.9596C753.244 97.9596 760.342 90.8611 760.342 82.1C760.342 73.3576 753.244 66.2591 744.483 66.2591Z" fill="#1ED760"/>
<path d="M755.441 110.18H733.342C732.445 110.18 731.717 110.908 731.717 111.805V208.252C731.717 209.148 732.445 209.877 733.342 209.877H755.441C756.338 209.877 757.066 209.148 757.066 208.252V111.805C757.066 110.908 756.338 110.18 755.441 110.18Z" fill="#1ED760"/>
<path d="M719.801 110.178H695.479V85.3148C695.479 84.4181 694.751 83.6896 693.873 83.6896H671.774C670.877 83.6896 670.149 84.4181 670.149 85.3148V110.178H659.52C658.623 110.178 657.913 110.907 657.913 111.803V130.801C657.913 131.698 658.642 132.427 659.52 132.427H670.149V181.593C670.149 201.469 680.031 211.538 699.533 211.538C707.453 211.538 714.048 209.894 720.249 206.382C720.754 206.102 721.071 205.56 721.071 204.981V186.88C721.071 186.319 720.772 185.796 720.305 185.497C719.82 185.198 719.222 185.18 718.736 185.423C714.477 187.571 710.367 188.561 705.753 188.561C698.655 188.561 695.498 185.348 695.498 178.119V132.427H719.82C720.716 132.427 721.426 131.698 721.426 130.801V111.803C721.408 110.907 720.698 110.178 719.801 110.178Z" fill="#1ED760"/>
<path d="M603.238 108.16C573.443 108.16 550.111 131.099 550.111 160.39C550.111 189.363 573.294 212.06 602.883 212.06C632.791 212.06 656.197 189.195 656.197 160.017C656.178 130.95 632.921 108.16 603.238 108.16ZM603.238 189.644C587.397 189.644 575.442 176.904 575.442 160.035C575.442 143.073 586.968 130.782 602.865 130.782C618.818 130.782 630.848 143.522 630.848 160.409C630.848 177.352 619.229 189.644 603.238 189.644Z" fill="#1ED760"/>
<path d="M496.649 108.16C484.189 108.16 473.99 113.073 465.565 123.104V111.803C465.565 110.906 464.836 110.177 463.958 110.177H441.859C440.963 110.177 440.253 110.906 440.253 111.803V237.484C440.253 238.381 440.981 239.109 441.859 239.109H463.958C464.855 239.109 465.565 238.381 465.565 237.484V197.807C473.99 207.259 484.208 211.873 496.649 211.873C519.775 211.873 543.2 194.071 543.2 160.017C543.2 125.981 519.775 108.16 496.649 108.16ZM517.496 160.035C517.496 177.371 506.811 189.475 491.53 189.475C476.418 189.475 465.004 176.829 465.004 160.035C465.004 143.242 476.399 130.595 491.53 130.595C506.568 130.595 517.496 142.961 517.496 160.035Z" fill="#1ED760"/>
<path d="M389.333 132.52C364.638 126.636 360.248 122.507 360.248 113.821C360.248 105.62 367.963 100.091 379.451 100.091C390.585 100.091 401.625 104.275 413.188 112.906C413.543 113.167 413.972 113.279 414.402 113.205C414.832 113.148 415.224 112.906 415.467 112.551L427.516 95.5516C428.001 94.8604 427.871 93.8891 427.217 93.3473C413.449 82.2886 397.926 76.9273 379.806 76.9273C353.149 76.9273 334.525 92.9177 334.525 115.82C334.525 140.366 350.59 149.052 378.349 155.758C401.98 161.194 405.959 165.752 405.959 173.916C405.959 182.938 397.889 188.561 384.924 188.561C370.522 188.561 358.753 183.704 345.602 172.328C345.285 172.048 344.836 171.917 344.407 171.935C343.977 171.973 343.566 172.178 343.305 172.515L329.78 188.598C329.22 189.271 329.294 190.261 329.948 190.84C345.247 204.495 364.059 211.706 384.364 211.706C413.094 211.706 431.644 196.014 431.644 171.711C431.681 151.182 419.408 139.824 389.333 132.52Z" fill="#1ED760"/>
<path d="M143.276 0.502075C64.2958 0.502075 0.27832 64.5196 0.27832 143.5C0.27832 222.48 64.2958 286.498 143.276 286.498C222.257 286.498 286.274 222.48 286.274 143.5C286.256 64.5196 222.238 0.502075 143.276 0.502075ZM208.844 206.752C206.266 210.973 200.793 212.281 196.59 209.722C163.003 189.192 120.748 184.559 70.9647 195.936C66.1638 197.038 61.3817 194.03 60.2982 189.229C59.1961 184.429 62.1849 179.646 67.0045 178.563C121.476 166.103 168.196 171.464 205.893 194.497C210.096 197.056 211.422 202.549 208.844 206.752ZM226.348 167.803C223.116 173.052 216.26 174.696 211.011 171.483C172.586 147.871 113.985 141.016 68.5176 154.82C62.6146 156.595 56.394 153.27 54.6007 147.385C52.8261 141.483 56.1512 135.281 62.0355 133.487C113.967 117.721 178.526 125.361 222.668 152.485C227.917 155.717 229.561 162.573 226.348 167.803ZM227.861 127.267C181.776 99.9001 105.747 97.3783 61.7366 110.735C54.6754 112.883 47.2033 108.885 45.0551 101.824C42.9068 94.763 46.9044 87.2909 53.9656 85.1426C104.477 69.8061 188.445 72.7763 241.497 104.271C247.849 108.045 249.941 116.245 246.168 122.597C242.413 128.948 234.193 131.04 227.861 127.267Z" fill="#1ED760"/>
</svg>
